<svg xmlns="http://www.w3.org/2000/svg" viewBox="0 0 354.19 97.77"><defs><style>.a{fill:#e6e6e6;}.b{fill:#ff6384;}.c{fill:#ffd444;}.d{fill:none;stroke:#e6e6e6;stroke-linecap:round;stroke-miterlimit:10;stroke-width:2.91px;}.e{fill:#fff;}.f{opacity:0.15;}.g{fill:#f2f2f2;}</style></defs><title>banner</title><path class="a" d="M120,65.67a10.63,10.63,0,0,1-4.39-.89,8.22,8.22,0,0,1-3.34-2.73H112a33,33,0,0,1,.27,4.09V76.27h-3.73V40.6h3L112.1,44h.18a8.62,8.62,0,0,1,3.35-2.92,10.14,10.14,0,0,1,4.38-.9,9.09,9.09,0,0,1,7.55,3.35q2.67,3.34,2.67,9.39t-2.71,9.42A9.11,9.11,0,0,1,120,65.67Zm-.54-22.35q-3.78,0-5.46,2.09t-1.73,6.65v.83q0,5.19,1.73,7.42t5.55,2.24a5.77,5.77,0,0,0,5-2.59,12.2,12.2,0,0,0,1.81-7.12q0-4.61-1.81-7.06A5.93,5.93,0,0,0,119.47,43.32Z"/><path class="a" d="M132.83,40.6h4l5.39,14a53,53,0,0,1,2.2,6.94h.18c.2-.76.6-2.07,1.23-3.92s2.65-7.53,6.09-17.06h4l-10.58,28a14,14,0,0,1-3.67,5.9,7.81,7.81,0,0,1-5.15,1.74,15.21,15.21,0,0,1-3.37-.38v-3a12.91,12.91,0,0,0,2.76.27q3.84,0,5.48-4.31l1.37-3.51Z"/><path class="b" d="M174.27,36.51A8.88,8.88,0,0,0,167,39.79c-1.76,2.19-2.65,5.21-2.65,9.05q0,6,2.55,9.15a9,9,0,0,0,7.38,3.1,19.32,19.32,0,0,0,4-.42c1.3-.28,2.65-.63,4.06-1.07v4.61a24.72,24.72,0,0,1-8.76,1.46q-7.22,0-11.07-4.37t-3.87-12.5a20.2,20.2,0,0,1,1.88-9A13.46,13.46,0,0,1,166,34a16.47,16.47,0,0,1,8.34-2,20.68,20.68,0,0,1,9.3,2.11l-1.94,4.47a29.8,29.8,0,0,0-3.51-1.38A12.62,12.62,0,0,0,174.27,36.51Z"/><path class="b" d="M210.75,65.22h-5.3V50a6.68,6.68,0,0,0-1.16-4.29,4.44,4.44,0,0,0-3.67-1.42,5.82,5.82,0,0,0-4.89,2q-1.56,2-1.56,6.66V65.22h-5.28V30.27h5.28v8.87a41.42,41.42,0,0,1-.27,4.56h.34a7.32,7.32,0,0,1,3-2.78,9.64,9.64,0,0,1,4.48-1q9,0,9,9.09Z"/><path class="b" d="M233.64,65.22l-1.06-3.46h-.18a10.21,10.21,0,0,1-3.62,3.09,11.53,11.53,0,0,1-4.67.82,7.88,7.88,0,0,1-5.71-2,7.4,7.4,0,0,1-2.06-5.59,6.59,6.59,0,0,1,2.85-5.8c1.91-1.3,4.8-2,8.7-2.13l4.29-.13V48.71a5,5,0,0,0-1.12-3.56A4.51,4.51,0,0,0,227.62,44a12,12,0,0,0-3.66.56,27.78,27.78,0,0,0-3.37,1.33l-1.71-3.78a18.27,18.27,0,0,1,4.42-1.6,20.27,20.27,0,0,1,4.54-.55c3.16,0,5.55.69,7.15,2.06s2.42,3.55,2.42,6.5V65.22Zm-7.86-3.59A6.54,6.54,0,0,0,230.39,60a5.82,5.82,0,0,0,1.74-4.5V53.36l-3.19.13a10.92,10.92,0,0,0-5.42,1.25,3.79,3.79,0,0,0-1.7,3.4,3.34,3.34,0,0,0,1,2.58A4.29,4.29,0,0,0,225.78,61.63Z"/><path class="b" d="M257.38,39.93a12.61,12.61,0,0,1,2.62.22l-.51,4.92a10,10,0,0,0-2.34-.27A6.75,6.75,0,0,0,252,46.87a7.48,7.48,0,0,0-2,5.37v13h-5.28V40.38h4.13l.7,4.38h.27a9.72,9.72,0,0,1,3.22-3.53A7.63,7.63,0,0,1,257.38,39.93Z"/><path class="b" d="M273.86,61.4a12.71,12.71,0,0,0,3.87-.61v4a11,11,0,0,1-2.26.64,15.76,15.76,0,0,1-2.86.26q-7.5,0-7.51-7.91V44.38h-3.39V42l3.64-1.93,1.8-5.26h3.26v5.53h7.07v4h-7.07V57.67a3.71,3.71,0,0,0,.95,2.82A3.47,3.47,0,0,0,273.86,61.4Z"/><path class="b" d="M281.9,62.41a3.44,3.44,0,0,1,.86-2.51,3.88,3.88,0,0,1,5,0,3.47,3.47,0,0,1,.85,2.48,3.56,3.56,0,0,1-.86,2.53,3.77,3.77,0,0,1-4.95,0A3.58,3.58,0,0,1,281.9,62.41Z"/><path class="c" d="M291.74,74.38a10.36,10.36,0,0,1-3.68-.56V69.31a14,14,0,0,0,3.28.47q4.4,0,4.4-5.57V32.38h5.39V64c0,3.35-.8,5.92-2.39,7.69S294.81,74.38,291.74,74.38Z"/><path class="c" d="M328.58,56.3a8.29,8.29,0,0,1-3.17,6.88q-3.17,2.49-8.74,2.49a20.84,20.84,0,0,1-9.11-1.73V58.86a23.78,23.78,0,0,0,4.77,1.66,19.89,19.89,0,0,0,4.7.61,7.48,7.48,0,0,0,4.71-1.21,4,4,0,0,0,1.52-3.26,4.07,4.07,0,0,0-1.4-3.12,21.08,21.08,0,0,0-5.75-3c-3-1.22-5.1-2.6-6.33-4.16a8.78,8.78,0,0,1-1.84-5.61,7.85,7.85,0,0,1,2.92-6.47,12.12,12.12,0,0,1,7.84-2.36A23,23,0,0,1,328.08,34l-1.7,4.38a20.52,20.52,0,0,0-7.82-1.85,6,6,0,0,0-3.95,1.14,3.71,3.71,0,0,0-1.35,3,4.23,4.23,0,0,0,.54,2.19,5.49,5.49,0,0,0,1.77,1.71A30.94,30.94,0,0,0,320,46.69a24.05,24.05,0,0,1,5.3,2.81,8.09,8.09,0,0,1,2.47,2.94A8.75,8.75,0,0,1,328.58,56.3Z"/><path class="b" d="M41.44,18.2l26.16-.33,9.69,10L67,50.82l-12.6-7.43L47.58,56,36.27,53.73l-4.2,16.15-8.56-8.24q.07-12.51.16-25Z"/><path class="c" d="M66.62,79.32l-24.54.58L31.42,69.24l4.85-15.19,10.66,1.62,7.43-12.28L67,50.5q4.89-10.83,9.8-21.66l8,7.61V61.64Z"/><line class="d" x1="45.96" y1="35.8" x2="24.96" y2="35.8"/><line class="d" x1="84.72" y1="62.29" x2="64.05" y2="62.29"/><circle class="e" cx="42.73" cy="28.69" r="2.42"/><circle class="e" cx="67.28" cy="69.72" r="2.42"/><path class="a" d="M30,69.27l4.26-16.06,0-.07a1.52,1.52,0,0,1,1.78-1.09l11.57,2.54-1.35.64,7.09-12.44,0,0a.89.89,0,0,1,1.23-.34l0,0,12.42,7.73-.82.25L76.81,28.69,67.32,50.9a.56.56,0,0,1-.74.29l0,0h0L53.73,44,55,43.67,48.52,56.43a1.2,1.2,0,0,1-1.29.65h-.06l-11.68-2,1.8-1.15-3.5,16.24Z"/><path class="a" d="M66.86,19.49,84.08,36.71V61.06L66.86,78.28H42.51L25.29,61.06V36.71L42.51,19.49H66.86m1.2-2.91H41.3L22.38,35.5V62.26L41.3,81.19H68.06L87,62.26V35.5L68.06,16.58Z"/><g class="f"><path class="g" d="M68.06,16.58H41.3L22.38,35.5V62.26L32.75,72.74c6.78-6.2,42.53-41.51,45.8-45.67Z"/></g></svg>